<svg xmlns="http://www.w3.org/2000/svg" width="30" height="29" viewBox="0 0 30 29" fill="none">
  <path d="M1.875 29C2.91053 29 3.75 28.1885 3.75 27.1875L3.75 5.4375C3.75 4.43648 2.91053 3.625 1.875 3.625C0.839465 3.625 -8.33643e-07 4.43648 -8.77399e-07 5.4375L-1.82812e-06 27.1875C-1.87188e-06 28.1885 0.839464 29 1.875 29Z" fill="black"/>
  <path d="M23.9867 23.1874C24.7189 22.4796 24.7189 21.332 23.9867 20.6241L8.07677 5.24456C7.34454 4.53673 6.15735 4.53673 5.42512 5.24456C4.69289 5.95239 4.69289 7.1 5.42512 7.80782L21.335 23.1874C22.0673 23.8952 23.2544 23.8952 23.9867 23.1874Z" fill="black"/>
  <path d="M3.75 1.8125C3.75 2.81352 4.58947 3.625 5.625 3.625L28.125 3.625C29.1605 3.625 30 2.81352 30 1.8125C30 0.811485 29.1605 1.87065e-06 28.125 1.82539e-06L5.625 8.41883e-07C4.58947 7.96619e-07 3.75 0.811484 3.75 1.8125Z" fill="black"/>
</svg>