 <svg
    width="32"
    height="31"
    viewBox="0 0 32 31"
    fill="none"
    xmlns="http://www.w3.org/2000/svg"
>
    <path
        d="M30 31C28.8954 31 28 30.1326 28 29.0625L28 5.8125C28 4.74245 28.8954 3.875 30 3.875C31.1046 3.875 32 4.74245 32 5.8125L32 29.0625C32 30.1325 31.1046 31 30 31Z"
        fill="black"
    />
    <path
        d="M6.41421 24.7865C5.63317 24.0299 5.63317 22.8031 6.41421 22.0465L23.3848 5.60625C24.1658 4.84961 25.4322 4.84961 26.2132 5.60625C26.9943 6.36289 26.9943 7.58965 26.2132 8.34629L9.24264 24.7865C8.46159 25.5432 7.19526 25.5432 6.41421 24.7865Z"
        fill="black"
    />
    <path
        d="M28 1.9375C28 3.00755 27.1046 3.875 26 3.875L2 3.875C0.89543 3.875 -1.20928e-06 3.00756 -1.25551e-06 1.9375C-1.30174e-06 0.867451 0.895429 3.77509e-06 2 3.72624e-06L26 2.66476e-06C27.1046 2.6159e-06 28 0.867449 28 1.9375Z"
        fill="black"
    />
</svg>