<svg xmlns="http://www.w3.org/2000/svg" width="48" height="37" viewBox="0 0 48 37" fill="none">
  <path d="M48 0L37.3166 23.2186L36.7147 18.2753C38.5204 18.2753 40.1254 18.7247 41.5298 19.6235C42.9342 20.5223 44.0878 21.6707 44.9906 23.0688C45.8934 24.4669 46.3448 26.0149 46.3448 27.7126C46.3448 29.4103 45.8934 31.0081 44.9906 32.5061C44.0878 33.9042 42.9342 35.0027 41.5298 35.8016C40.1254 36.6005 38.4702 37 36.5643 37C34.8589 37 33.2539 36.6005 31.7492 35.8016C30.3448 34.9028 29.1912 33.7045 28.2884 32.2065C27.4859 30.7085 27.0846 29.0108 27.0846 27.1134C27.0846 25.2159 27.4357 23.2686 28.1379 21.2713C28.8401 19.1741 30.1944 16.4278 32.2006 13.0324L39.5737 0H48ZM20.9154 0L10.232 23.2186L9.63009 18.2753C11.4357 18.2753 13.0408 18.7247 14.4451 19.6235C15.8495 20.5223 17.0031 21.6707 17.906 23.0688C18.8088 24.4669 19.2602 26.0149 19.2602 27.7126C19.2602 29.4103 18.8088 31.0081 17.906 32.5061C17.0031 33.9042 15.8495 35.0027 14.4451 35.8016C13.0408 36.6005 11.3856 37 9.47962 37C7.77429 37 6.16928 36.6005 4.66458 35.8016C3.26019 34.9028 2.10658 33.7045 1.20376 32.2065C0.401254 30.7085 0 29.0108 0 27.1134C0 25.2159 0.351097 23.2686 1.05329 21.2713C1.75549 19.1741 3.10972 16.4278 5.11599 13.0324L12.489 0H20.9154Z" fill="black"/>
</svg>