<svg width="133" height="23" viewBox="0 0 133 23" fill="none" xmlns="http://www.w3.org/2000/svg">
<g clip-path="url(#clip0_1174_5975)">
<path d="M64.639 21.5847C64.639 21.5847 65.1764 16.2432 61.3685 12.1572C59.6534 10.3169 56.7659 12.1971 55.0111 14.7483M55.0111 14.7483C52.8697 17.8615 52.4156 21.9738 57.8381 21.5433C64.739 20.9954 59.0526 17.0628 55.0111 14.7483ZM55.0111 14.7483C53.2744 13.7537 51.8413 13.0579 51.8413 13.0579" stroke="black" stroke-width="1.59628" stroke-linecap="round"/>
<path d="M0.963867 14.7411C2.61905 18.5748 4.15726 14.8459 5.47076 13.3035C7.84259 10.5185 8.38747 12.709 8.71235 14.1016M8.71235 14.1016C9.29357 16.5928 7.71869 21.5929 7.16989 21.5929C6.41798 21.5929 3.91769 17.5648 8.71235 14.1016ZM8.71235 14.1016C9.37354 13.624 10.3512 12.9494 10.3512 12.9494C18.1118 7.87186 19.9916 16.7117 14.9425 21.5955" stroke="black" stroke-width="1.59628" stroke-linecap="round"/>
<path d="M27.3063 21.5638C30.6207 21.5638 33.3075 19.2905 33.3075 16.4862C33.3075 13.682 30.6207 11.4087 27.3063 11.4087C23.992 11.4087 21.3052 13.682 21.3052 16.4862C21.3052 19.2905 23.992 21.5638 27.3063 21.5638Z" stroke="black" stroke-width="1.59628"/>
<path d="M67.5402 0.68233C67.4471 0.238752 66.947 -0.057143 66.4226 0.021429C65.8984 0.100001 65.5487 0.523287 65.6415 0.966865L67.5402 0.68233ZM15.0508 21.5427C15.6668 22.1701 15.6668 22.1701 15.6668 22.1701C15.6668 22.1701 15.6669 22.1699 15.6671 22.1699C15.6674 22.1697 15.6679 22.1693 15.6687 22.1687C15.6702 22.1677 15.6726 22.166 15.6758 22.1638C15.6822 22.1593 15.6921 22.1524 15.7053 22.1432C15.7318 22.1246 15.7716 22.0969 15.8242 22.0606C15.9293 21.988 16.0853 21.8808 16.287 21.7441C16.6903 21.4705 17.2761 21.0787 18.0024 20.6083C19.456 19.6668 21.4679 18.4129 23.7047 17.1606C25.9447 15.9065 28.3921 14.6642 30.7191 13.7382C33.0721 12.8019 35.1934 12.2338 36.814 12.2338V10.6025C34.7548 10.6025 32.316 11.3 29.8987 12.262C27.4551 13.2343 24.9216 14.5231 22.6407 15.8001C20.3566 17.079 18.3075 18.3562 16.8304 19.313C16.0913 19.7917 15.4942 20.191 15.0811 20.4711C14.8745 20.6112 14.7139 20.7215 14.6044 20.7971C14.5497 20.8351 14.5078 20.8642 14.4793 20.884C14.465 20.894 14.4541 20.9015 14.4467 20.9068C14.4429 20.9095 14.4401 20.9115 14.4381 20.913C14.4371 20.9136 14.4363 20.9142 14.4357 20.9146C14.4355 20.9148 14.4352 20.9148 14.4351 20.915C14.4349 20.9152 14.4347 20.9152 15.0508 21.5427ZM36.814 12.2338C38.208 12.2338 39.0349 12.3891 39.5039 12.5848C39.9131 12.7555 40.0327 12.9443 40.0785 13.1505C40.139 13.4228 40.0821 13.8185 39.8731 14.3742C39.6678 14.92 39.3615 15.5088 39.0313 16.1582C38.7129 16.7849 38.3721 17.4686 38.1615 18.1258C37.9537 18.7747 37.8347 19.507 38.0848 20.1992C38.3533 20.9419 38.9946 21.5029 39.9712 21.8573C40.908 22.197 42.1748 22.3583 43.8153 22.3583V20.727C42.2866 20.727 41.3206 20.5718 40.7311 20.3579C40.1816 20.1586 40.0033 19.9286 39.9288 19.7222C39.8358 19.4651 39.8502 19.0901 40.0226 18.5526C40.192 18.0233 40.4778 17.4415 40.8027 16.8026C41.1158 16.1864 41.4693 15.5096 41.7104 14.869C41.9475 14.2382 42.1237 13.5266 41.9735 12.8497C41.8087 12.1067 41.2744 11.5045 40.3564 11.1216C39.4981 10.7635 38.3242 10.6025 36.814 10.6025V12.2338ZM43.8153 22.3583C45.4629 22.3583 46.7545 22.1834 47.7212 21.8086C48.7295 21.4179 49.3764 20.81 49.6632 20.0297C49.9334 19.2946 49.8498 18.4966 49.6509 17.7464C49.4502 16.9883 49.1046 16.185 48.7479 15.4055C48.0039 13.78 47.2358 12.2772 47.1037 10.9769C47.0405 10.3551 47.1357 9.85549 47.397 9.45216C47.6527 9.05725 48.1248 8.66618 49.0142 8.34478L48.2569 6.84456C47.0591 7.27738 46.2115 7.88782 45.7061 8.66816C45.2062 9.44005 45.0987 10.2894 45.1826 11.1166C45.345 12.7144 46.2705 14.5101 46.9497 15.9945C47.3047 16.7698 47.6031 17.4744 47.7696 18.1033C47.9383 18.7402 47.946 19.2085 47.8221 19.5453C47.7149 19.8369 47.483 20.1066 46.9184 20.3255C46.3122 20.5604 45.3371 20.727 43.8153 20.727V22.3583ZM49.0142 8.34478C50.2448 7.90012 52.0251 7.86943 54.1754 7.98603C56.2247 8.09713 58.6155 8.34413 60.687 8.30951C62.7525 8.27496 64.8637 7.96713 66.2647 6.74058C67.7021 5.48204 68.1302 3.50118 67.5402 0.68233L65.6415 0.966865C66.1903 3.58752 65.6769 4.90758 64.8782 5.60698C64.0429 6.33835 62.6233 6.64545 60.649 6.67847C58.6806 6.71138 56.5224 6.47857 54.2988 6.35801C52.1765 6.24296 49.9606 6.22885 48.2569 6.84456L49.0142 8.34478Z" fill="black"/>
</g>
<g clip-path="url(#clip1_1174_5975)">
<path d="M115.652 9.51172V21.6699L114.8 20.9658H122.093V22.3911H113.745V9.51172H115.652Z" fill="black"/>
<path d="M115.652 9.51172V21.6699L114.8 20.9658H122.093V22.3911H113.745V9.51172H115.652Z" fill="black"/>
<path d="M109.205 15.2645V16.6383H102.724V15.2645H109.205ZM103.922 15.9514L104.023 21.9962L103.008 20.983H113.041V22.3911H102.075V15.9514V9.51172H112.94V10.9199H103.008L104.023 9.90669L103.922 15.9514Z" fill="black"/>
<path d="M109.205 15.2645V16.6383H102.724V15.2645H109.205ZM103.922 15.9514L104.023 21.9962L103.008 20.983H113.041V22.3911H102.075V15.9514V9.51172H112.94V10.9199H103.008L104.023 9.90669L103.922 15.9514Z" fill="black"/>
<path d="M84.3789 9.51172H86.2868V22.3911H84.3789V9.51172Z" fill="black"/>
<path d="M84.3789 9.51172H86.2868V22.3911H84.3789V9.51172Z" fill="black"/>
<path d="M132.012 12.6247V10.2373H123.386V15.8527H132.012V18.7645V21.6762C132.012 21.6762 128.577 21.6762 123.386 21.6762V19.5129" stroke="black" stroke-width="1.40037"/>
<path d="M132.012 12.6247V10.2373H123.386V15.8527H127.699H132.012V18.7645V21.6762C132.012 21.6762 128.577 21.6762 123.386 21.6762V19.3981" stroke="black" stroke-width="1.40037"/>
<path fill-rule="evenodd" clip-rule="evenodd" d="M98.9075 19.3859H96.6287L99.2074 22.3911H101.582L98.9075 19.3859ZM92.1548 19.3859H89.9193L87.2314 22.3911H89.5655L92.1548 19.3859ZM101.582 9.51172L99.0925 12.0876H96.8226L99.2886 9.51172H101.582ZM89.587 9.51172L92.0623 12.0876H89.7415L87.2326 9.51172H89.587Z" fill="black"/>
<path fill-rule="evenodd" clip-rule="evenodd" d="M98.9075 19.3859H96.6287L99.2074 22.3911H101.582L98.9075 19.3859ZM92.1548 19.3859H89.9193L87.2314 22.3911H89.5655L92.1548 19.3859ZM101.582 9.51172L99.0925 12.0876H96.8226L99.2886 9.51172H101.582ZM89.587 9.51172L92.0623 12.0876H89.7415L87.2326 9.51172H89.587Z" fill="black"/>
<path d="M95.7734 14.9014H93.2363V17.0479H95.7734V14.9014Z" fill="#E60E6E"/>
<path d="M112.941 10.9189H111.216V12.6479H112.941V10.9189Z" fill="black"/>
<path d="M112.941 10.9189H111.216V12.6479H112.941V10.9189Z" fill="black"/>
<path d="M113.041 19.4121H111.316V21.1411H113.041V19.4121Z" fill="black"/>
<path d="M113.041 19.4121H111.316V21.1411H113.041V19.4121Z" fill="black"/>
<path d="M74.1671 9.51172H72.3066V22.3911H74.1671V9.51172Z" fill="black"/>
<path d="M74.1671 9.51172H72.3066V22.3911H74.1671V9.51172Z" fill="black"/>
<path d="M83.453 9.51172H81.6025V16.612H83.453V9.51172Z" fill="black"/>
<path d="M73.4902 9.51172V10.9428H82.6235V9.51172H73.4902Z" fill="black"/>
<path d="M73.4902 9.51172V10.9428H82.6235V9.51172H73.4902Z" fill="black"/>
<path d="M73.5117 15.229V16.6127H82.6352V15.229H73.5117Z" fill="black"/>
</g>
<defs>
<clipPath id="clip0_1174_5975">
<rect width="67.8203" height="22.4106" fill="white"/>
</clipPath>
<clipPath id="clip1_1174_5975">
<rect width="60.5504" height="12.8794" fill="white" transform="translate(72.3066 9.51172)"/>
</clipPath>
</defs>
</svg>
