<svg width="992" height="168" viewBox="0 0 992 168" fill="none" xmlns="http://www.w3.org/2000/svg">
<g clip-path="url(#clip0_1584_2751)">
<path d="M30.176 117.175V99.2988H116.112V117.175H30.176ZM87.248 22.3828L146.288 145.383H123.164L69.536 30.5828H77.9L24.272 145.383H1.148L60.188 22.3828H87.248ZM230.98 84.3748L233.112 79.6188C242.843 79.7281 250.769 81.2041 256.892 84.0468C263.124 86.8895 267.661 90.7161 270.504 95.5268C273.456 100.337 274.932 105.749 274.932 111.763C274.932 118.323 273.347 124.117 270.176 129.147C267.115 134.176 262.577 138.167 256.564 141.119C250.551 143.961 243.061 145.383 234.096 145.383H152.096L161.772 82.2428L152.096 22.3828H231.144C242.515 22.3828 251.261 25.0615 257.384 30.4188C263.616 35.6668 266.732 42.9375 266.732 52.2308C266.732 57.1508 265.529 61.9615 263.124 66.6628C260.828 71.2548 257.056 75.1908 251.808 78.4708C246.669 81.6415 239.727 83.6095 230.98 84.3748ZM173.908 139.315L165.544 127.999H231.636C238.415 127.999 243.663 126.468 247.38 123.407C251.207 120.236 253.12 115.753 253.12 109.959C253.12 103.836 250.879 99.0801 246.396 95.6908C242.023 92.3015 235.517 90.6068 226.88 90.6068H173.58V73.8788H224.748C230.543 73.8788 235.353 72.2935 239.18 69.1228C243.007 65.8428 244.92 61.1961 244.92 55.1828C244.92 50.7001 243.335 47.0375 240.164 44.1948C236.993 41.2428 232.401 39.7668 226.388 39.7668H165.544L173.908 28.4508L182.6 82.2428L173.908 139.315ZM464.233 92.5748C464.233 99.9001 465.709 106.241 468.661 111.599C471.613 116.956 475.822 121.111 481.289 124.063C486.865 126.905 493.479 128.327 501.133 128.327C508.895 128.327 515.51 126.905 520.977 124.063C526.443 121.111 530.653 116.956 533.605 111.599C536.557 106.241 538.033 99.9001 538.033 92.5748V22.3828H559.681V93.3948C559.681 104.219 557.221 113.731 552.301 121.931C547.381 130.021 540.547 136.363 531.801 140.955C523.054 145.437 512.831 147.679 501.133 147.679C489.543 147.679 479.321 145.437 470.465 140.955C461.718 136.363 454.885 130.021 449.965 121.931C445.045 113.731 442.585 104.219 442.585 93.3948V22.3828H464.233V92.5748ZM620.411 32.3868H642.059V145.383H620.411V32.3868ZM569.571 22.3828H692.899V41.4068H569.571V22.3828ZM757.133 92.5748C757.133 99.9001 758.609 106.241 761.561 111.599C764.513 116.956 768.722 121.111 774.189 124.063C779.765 126.905 786.38 128.327 794.033 128.327C801.796 128.327 808.41 126.905 813.877 124.063C819.344 121.111 823.553 116.956 826.505 111.599C829.457 106.241 830.933 99.9001 830.933 92.5748V22.3828H852.581V93.3948C852.581 104.219 850.121 113.731 845.201 121.931C840.281 130.021 833.448 136.363 824.701 140.955C815.954 145.437 805.732 147.679 794.033 147.679C782.444 147.679 772.221 145.437 763.365 140.955C754.618 136.363 747.785 130.021 742.865 121.931C737.945 113.731 735.485 104.219 735.485 93.3948V22.3828H757.133V92.5748ZM866.079 105.367H888.055C888.711 110.287 890.734 114.605 894.123 118.323C897.622 122.04 902.214 124.937 907.899 127.015C913.584 128.983 920.144 129.967 927.579 129.967C938.622 129.967 947.368 128.272 953.819 124.883C960.27 121.384 963.495 116.683 963.495 110.779C963.495 105.968 961.636 102.36 957.919 99.9548C954.202 97.5495 947.478 95.7455 937.747 94.5428L911.179 91.0988C896.31 89.1308 885.486 85.4681 878.707 80.1108C872.038 74.6441 868.703 66.9361 868.703 56.9868C868.703 49.4428 870.944 42.9375 875.427 37.4708C880.019 31.8948 886.47 27.6308 894.779 24.6788C903.088 21.6175 912.819 20.0868 923.971 20.0868C935.014 20.0868 944.799 21.7268 953.327 25.0068C961.855 28.2868 968.634 32.8788 973.663 38.7828C978.802 44.5775 981.59 51.4108 982.027 59.2828H960.051C959.504 54.9095 957.646 51.1375 954.475 47.9668C951.414 44.7961 947.259 42.3361 942.011 40.5868C936.763 38.7281 930.586 37.7988 923.479 37.7988C913.42 37.7988 905.384 39.4388 899.371 42.7188C893.358 45.9988 890.351 50.4815 890.351 56.1668C890.351 60.5401 892.1 63.9295 895.599 66.3348C899.207 68.6308 905.439 70.3801 914.295 71.5828L941.191 75.3548C952.234 76.8855 960.926 78.9628 967.267 81.5868C973.718 84.1015 978.31 87.5455 981.043 91.9188C983.776 96.1828 985.143 101.704 985.143 108.483C985.143 116.355 982.738 123.243 977.927 129.147C973.116 135.051 966.338 139.643 957.591 142.923C948.954 146.093 938.84 147.679 927.251 147.679C915.443 147.679 905.002 145.929 895.927 142.431C886.962 138.823 879.855 133.848 874.607 127.507C869.359 121.165 866.516 113.785 866.079 105.367Z" fill="black"/>
<rect x="323.17" y="20.168" width="66.6148" height="18.9455" fill="black"/>
<rect x="285.89" y="111.229" width="53.7808" height="18.9455" transform="rotate(-90 285.89 111.229)" fill="black"/>
<rect x="408.12" y="111.229" width="53.7808" height="18.9455" transform="rotate(-90 408.12 111.229)" fill="black"/>
<rect x="304.836" y="129.563" width="18.3344" height="18.3344" transform="rotate(-90 304.836 129.563)" fill="black"/>
<rect x="389.785" y="57.4482" width="18.3344" height="18.3344" transform="rotate(-90 389.785 57.4482)" fill="black"/>
<rect x="370.84" y="80.6709" width="18.9455" height="18.3344" transform="rotate(-90 370.84 80.6709)" fill="#E60E6E"/>
<rect x="324.393" y="80.6709" width="9.77833" height="19.5567" transform="rotate(-90 324.393 80.6709)" fill="#E60E6E"/>
<rect x="315.225" y="70.8936" width="9.16718" height="9.16718" transform="rotate(-90 315.225 70.8936)" fill="#E60E6E"/>
<rect x="352.505" y="121.618" width="9.16718" height="9.16718" transform="rotate(-90 352.505 121.618)" fill="#E60E6E"/>
<rect x="343.338" y="121.618" width="9.16718" height="9.16718" transform="rotate(-90 343.338 121.618)" fill="#E60E6E"/>
<rect x="334.171" y="113.673" width="9.16718" height="9.16718" transform="rotate(-90 334.171 113.673)" fill="#E60E6E"/>
<rect x="325.004" y="104.506" width="8.55604" height="9.16718" transform="rotate(-90 325.004 104.506)" fill="#E60E6E"/>
<rect x="370.84" y="112.451" width="9.16718" height="8.55604" transform="rotate(-90 370.84 112.451)" fill="#E60E6E"/>
<rect x="379.396" y="103.283" width="9.16718" height="9.16718" transform="rotate(-90 379.396 103.283)" fill="#E60E6E"/>
<rect x="361.672" y="121.618" width="9.16718" height="9.16718" transform="rotate(-90 361.672 121.618)" fill="#E60E6E"/>
<rect x="343.338" y="70.8936" width="9.16718" height="9.16718" transform="rotate(-90 343.338 70.8936)" fill="#E60E6E"/>
<rect x="389.785" y="129.563" width="18.3344" height="18.3344" transform="rotate(-90 389.785 129.563)" fill="black"/>
<rect x="304.836" y="57.4482" width="18.3344" height="18.3344" transform="rotate(-90 304.836 57.4482)" fill="black"/>
<rect x="323.17" y="129.563" width="66.6148" height="18.9455" fill="black"/>
</g>
<defs>
<clipPath id="clip0_1584_2751">
<rect width="992" height="168" fill="white"/>
</clipPath>
</defs>
</svg>
