<svg width="1856" height="287" viewBox="0 0 1856 287" fill="none" xmlns="http://www.w3.org/2000/svg">
<g clip-path="url(#clip0_1715_2391)">
<path d="M247.625 165.949C245.738 183.306 239.607 198.683 229.23 212.078C219.042 225.285 205.647 235.567 189.044 242.925C172.441 250.283 153.48 253.962 132.161 253.962C108.389 253.962 87.5413 249.34 69.618 240.095C51.6947 230.85 37.7333 218.021 27.734 201.607C17.7347 185.004 12.735 165.76 12.735 143.875C12.735 121.99 17.7347 102.84 27.734 86.426C37.7333 69.8233 51.6947 56.8997 69.618 47.655C87.5413 38.4103 108.389 33.788 132.161 33.788C153.48 33.788 172.441 37.467 189.044 44.825C205.647 52.183 219.042 62.4653 229.23 75.672C239.607 88.8787 245.738 104.255 247.625 121.801H209.986C207.911 110.481 203.383 100.765 196.402 92.652C189.61 84.5393 180.743 78.3133 169.8 73.974C158.857 69.446 146.217 67.182 131.878 67.182C115.275 67.182 100.842 70.295 88.579 76.521C76.5043 82.747 67.1653 91.6143 60.562 103.123C53.9587 114.632 50.657 128.216 50.657 143.875C50.657 159.534 53.9587 173.118 60.562 184.627C67.1653 196.136 76.5043 205.003 88.579 211.229C100.842 217.455 115.275 220.568 131.878 220.568C146.217 220.568 158.857 218.398 169.8 214.059C180.743 209.72 189.61 203.494 196.402 195.381C203.383 187.08 207.911 177.269 209.986 165.949H247.625ZM735.716 227.36L720.434 229.058V37.75H756.658V250H709.114L560.256 58.692L575.255 56.994V250H539.031V37.75H587.707L735.716 227.36ZM864.063 55.013H901.419V250H864.063V55.013ZM776.333 37.75H989.149V70.578H776.333V37.75ZM1000.28 201.324V170.477H1148.57V201.324H1000.28ZM1098.76 37.75L1200.64 250H1160.74L1068.2 51.9H1082.63L990.089 250H950.186L1052.07 37.75H1098.76ZM1430.27 165.949C1428.38 183.306 1422.25 198.683 1411.87 212.078C1401.68 225.285 1388.29 235.567 1371.69 242.925C1355.08 250.283 1336.12 253.962 1314.8 253.962C1291.03 253.962 1270.18 249.34 1252.26 240.095C1234.34 230.85 1220.37 218.021 1210.38 201.607C1200.38 185.004 1195.38 165.76 1195.38 143.875C1195.38 121.99 1200.38 102.84 1210.38 86.426C1220.37 69.8233 1234.34 56.8997 1252.26 47.655C1270.18 38.4103 1291.03 33.788 1314.8 33.788C1336.12 33.788 1355.08 37.467 1371.69 44.825C1388.29 52.183 1401.68 62.4653 1411.87 75.672C1422.25 88.8787 1428.38 104.255 1430.27 121.801H1392.63C1390.55 110.481 1386.02 100.765 1379.04 92.652C1372.25 84.5393 1363.38 78.3133 1352.44 73.974C1341.5 69.446 1328.86 67.182 1314.52 67.182C1297.92 67.182 1283.48 70.295 1271.22 76.521C1259.15 82.747 1249.81 91.6143 1243.2 103.123C1236.6 114.632 1233.3 128.216 1233.3 143.875C1233.3 159.534 1236.6 173.118 1243.2 184.627C1249.81 196.136 1259.15 205.003 1271.22 211.229C1283.48 217.455 1297.92 220.568 1314.52 220.568C1328.86 220.568 1341.5 218.398 1352.44 214.059C1363.38 209.72 1372.25 203.494 1379.04 195.381C1386.02 187.08 1390.55 177.269 1392.63 165.949H1430.27ZM1514.31 55.013H1551.67V250H1514.31V55.013ZM1426.58 37.75H1639.4V70.578H1426.58V37.75ZM1639.33 180.948H1677.25C1678.38 189.438 1681.87 196.89 1687.72 203.305C1693.76 209.72 1701.68 214.719 1711.5 218.304C1721.31 221.7 1732.63 223.398 1745.46 223.398C1764.51 223.398 1779.6 220.474 1790.74 214.625C1801.87 208.588 1807.43 200.475 1807.43 190.287C1807.43 181.986 1804.23 175.76 1797.81 171.609C1791.4 167.458 1779.79 164.345 1763 162.27L1717.16 156.327C1691.5 152.931 1672.82 146.611 1661.12 137.366C1649.61 127.933 1643.86 114.632 1643.86 97.463C1643.86 84.445 1647.73 73.2193 1655.46 63.786C1663.39 54.164 1674.52 46.806 1688.86 41.712C1703.19 36.4293 1719.99 33.788 1739.23 33.788C1758.28 33.788 1775.17 36.618 1789.89 42.278C1804.6 47.938 1816.3 55.862 1824.98 66.05C1833.85 76.0493 1838.66 87.841 1839.41 101.425H1801.49C1800.55 93.8783 1797.34 87.3693 1791.87 81.898C1786.58 76.4267 1779.42 72.1817 1770.36 69.163C1761.3 65.9557 1750.64 64.352 1738.38 64.352C1721.02 64.352 1707.16 67.182 1696.78 72.842C1686.4 78.502 1681.21 86.2373 1681.21 96.048C1681.21 103.595 1684.23 109.443 1690.27 113.594C1696.5 117.556 1707.25 120.575 1722.53 122.65L1768.94 129.159C1788 131.8 1803 135.385 1813.94 139.913C1825.07 144.252 1833 150.195 1837.71 157.742C1842.43 165.1 1844.79 174.628 1844.79 186.325C1844.79 199.909 1840.64 211.795 1832.34 221.983C1824.04 232.171 1812.34 240.095 1797.24 245.755C1782.34 251.226 1764.89 253.962 1744.89 253.962C1724.51 253.962 1706.5 250.943 1690.84 244.906C1675.37 238.68 1663.1 230.096 1654.05 219.153C1644.99 208.21 1640.09 195.475 1639.33 180.948Z" fill="black"/>
<rect x="337.379" y="34.3789" width="113.545" height="32.2927" fill="black"/>
<rect x="273.834" y="189.59" width="91.6697" height="32.2927" transform="rotate(-90 273.834 189.59)" fill="black"/>
<rect x="482.174" y="189.59" width="91.6697" height="32.2927" transform="rotate(-90 482.174 189.59)" fill="black"/>
<rect x="306.127" y="220.844" width="31.251" height="31.251" transform="rotate(-90 306.127 220.844)" fill="black"/>
<rect x="450.924" y="97.9219" width="31.251" height="31.251" transform="rotate(-90 450.924 97.9219)" fill="black"/>
<rect x="418.631" y="137.508" width="32.2927" height="31.251" transform="rotate(-90 418.631 137.508)" fill="#E60E6E"/>
<rect x="339.462" y="137.508" width="16.6672" height="33.3344" transform="rotate(-90 339.462 137.508)" fill="#E60E6E"/>
<rect x="323.836" y="120.836" width="15.6255" height="15.6255" transform="rotate(-90 323.836 120.836)" fill="#E60E6E"/>
<rect x="387.379" y="207.301" width="15.6255" height="15.6255" transform="rotate(-90 387.379 207.301)" fill="#E60E6E"/>
<rect x="371.756" y="207.301" width="15.6255" height="15.6255" transform="rotate(-90 371.756 207.301)" fill="#E60E6E"/>
<rect x="356.13" y="193.758" width="15.6255" height="15.6255" transform="rotate(-90 356.13 193.758)" fill="#E60E6E"/>
<rect x="340.504" y="178.129" width="14.5838" height="15.6255" transform="rotate(-90 340.504 178.129)" fill="#E60E6E"/>
<rect x="418.631" y="191.672" width="15.6255" height="14.5838" transform="rotate(-90 418.631 191.672)" fill="#E60E6E"/>
<rect x="433.215" y="176.051" width="15.6255" height="15.6255" transform="rotate(-90 433.215 176.051)" fill="#E60E6E"/>
<rect x="403.007" y="207.301" width="15.6255" height="15.6255" transform="rotate(-90 403.007 207.301)" fill="#E60E6E"/>
<rect x="371.756" y="120.836" width="15.6255" height="15.6255" transform="rotate(-90 371.756 120.836)" fill="#E60E6E"/>
<rect x="450.924" y="220.844" width="31.251" height="31.251" transform="rotate(-90 450.924 220.844)" fill="black"/>
<rect x="306.127" y="97.9219" width="31.251" height="31.251" transform="rotate(-90 306.127 97.9219)" fill="black"/>
<rect x="337.379" y="220.844" width="113.545" height="32.2927" fill="black"/>
</g>
<defs>
<clipPath id="clip0_1715_2391">
<rect width="1856" height="287" fill="white"/>
</clipPath>
</defs>
</svg>
