<svg width="1920" height="572" viewBox="0 0 1920 572" fill="none" xmlns="http://www.w3.org/2000/svg">
<path d="M1714.6 20C1483.35 28.6551 1508.68 383.02 1280.88 423.758C1046.61 465.656 960.597 192.007 722.986 178.508C461.112 163.63 343.277 468.522 89.5783 401.917C-60.7916 362.439 -53.9525 125.469 -53.9525 125.469" stroke="url(#paint0_linear_1351_3767)" stroke-width="39.2748"/>
<path d="M139.927 301.416C119.106 301.416 100.806 297.431 85.0275 289.46C69.2488 281.489 56.9675 270.428 48.1835 256.276C39.3995 241.961 35.0075 225.369 35.0075 206.5C35.0075 187.631 39.3995 171.12 48.1835 156.968C56.9675 142.653 69.2488 131.511 85.0275 123.54C100.806 115.569 119.106 111.584 139.927 111.584C160.749 111.584 179.049 115.569 194.827 123.54C210.606 131.511 222.887 142.653 231.671 156.968C240.455 171.12 244.847 187.631 244.847 206.5C244.847 225.369 240.455 241.961 231.671 256.276C222.887 270.428 210.606 281.489 194.827 289.46C179.049 297.431 160.749 301.416 139.927 301.416ZM139.927 272.624C154.73 272.624 167.499 269.94 178.235 264.572C188.971 259.204 197.267 251.559 203.123 241.636C209.142 231.713 212.151 220.001 212.151 206.5C212.151 192.999 209.142 181.287 203.123 171.364C197.267 161.441 188.971 153.796 178.235 148.428C167.499 143.06 154.73 140.376 139.927 140.376C125.287 140.376 112.518 143.06 101.619 148.428C90.8835 153.796 82.5062 161.441 76.4875 171.364C70.6315 181.287 67.7035 192.999 67.7035 206.5C67.7035 220.001 70.6315 231.713 76.4875 241.636C82.5062 251.559 90.8835 259.204 101.619 264.572C112.518 269.94 125.287 272.624 139.927 272.624ZM305.907 219.432C305.907 230.331 308.103 239.765 312.495 247.736C316.887 255.707 323.149 261.888 331.283 266.28C339.579 270.509 349.42 272.624 360.807 272.624C372.356 272.624 382.197 270.509 390.331 266.28C398.464 261.888 404.727 255.707 409.119 247.736C413.511 239.765 415.707 230.331 415.707 219.432V115H447.915V220.652C447.915 236.756 444.255 250.908 436.935 263.108C429.615 275.145 419.448 284.58 406.435 291.412C393.421 298.081 378.212 301.416 360.807 301.416C343.564 301.416 328.355 298.081 315.179 291.412C302.165 284.58 291.999 275.145 284.679 263.108C277.359 250.908 273.699 236.756 273.699 220.652V115H305.907V219.432ZM508.989 197.472H583.409C594.145 197.472 602.604 195.032 608.785 190.152C615.129 185.272 618.301 178.603 618.301 170.144C618.301 161.523 615.129 154.853 608.785 150.136C602.604 145.256 594.145 142.816 583.409 142.816H504.353L518.749 124.76V298H486.541V115H586.337C599.188 115 610.412 117.359 620.009 122.076C629.769 126.631 637.333 133.056 642.701 141.352C648.232 149.485 650.997 159.083 650.997 170.144C650.997 180.88 648.232 190.396 642.701 198.692C637.333 206.825 629.769 213.251 620.009 217.968C610.412 222.523 599.188 224.8 586.337 224.8H508.989V197.472ZM545.101 212.356H582.921L655.633 298H617.081L545.101 212.356ZM845.757 115C859.421 115 871.214 117.44 881.137 122.32C891.222 127.2 898.949 134.032 904.317 142.816C909.847 151.437 912.613 161.441 912.613 172.828C912.613 184.215 909.847 194.3 904.317 203.084C898.949 211.705 891.222 218.456 881.137 223.336C871.214 228.216 859.421 230.656 845.757 230.656H763.529V202.84H844.537C855.598 202.84 864.219 200.156 870.401 194.788C876.745 189.42 879.917 182.1 879.917 172.828C879.917 163.556 876.745 156.236 870.401 150.868C864.219 145.5 855.598 142.816 844.537 142.816H766.701L781.097 126.712V298H748.889V115H845.757ZM1085.19 193.08V219.92H957.337V193.08H1085.19ZM978.565 206.5L965.633 288.24L950.261 270.184H1092.27V298H932.693L947.333 206.5L932.693 115H1091.05V142.816H950.261L965.633 124.76L978.565 206.5ZM1217.91 301.416C1197.09 301.416 1178.79 297.431 1163.01 289.46C1147.23 281.489 1134.95 270.428 1126.17 256.276C1117.38 241.961 1112.99 225.369 1112.99 206.5C1112.99 187.631 1117.38 171.12 1126.17 156.968C1134.95 142.653 1147.23 131.511 1163.01 123.54C1178.79 115.569 1197.09 111.584 1217.91 111.584C1238.73 111.584 1257.03 115.569 1272.81 123.54C1288.59 131.511 1300.87 142.653 1309.66 156.968C1318.44 171.12 1322.83 187.631 1322.83 206.5C1322.83 225.369 1318.44 241.961 1309.66 256.276C1300.87 270.428 1288.59 281.489 1272.81 289.46C1257.03 297.431 1238.73 301.416 1217.91 301.416ZM1217.91 272.624C1232.71 272.624 1245.48 269.94 1256.22 264.572C1266.96 259.204 1275.25 251.559 1281.11 241.636C1287.13 231.713 1290.14 220.001 1290.14 206.5C1290.14 192.999 1287.13 181.287 1281.11 171.364C1275.25 161.441 1266.96 153.796 1256.22 148.428C1245.48 143.06 1232.71 140.376 1217.91 140.376C1203.27 140.376 1190.5 143.06 1179.6 148.428C1168.87 153.796 1160.49 161.441 1154.47 171.364C1148.62 181.287 1145.69 192.999 1145.69 206.5C1145.69 220.001 1148.62 231.713 1154.47 241.636C1160.49 251.559 1168.87 259.204 1179.6 264.572C1190.5 269.94 1203.27 272.624 1217.91 272.624ZM1450.99 115C1464.65 115 1476.45 117.44 1486.37 122.32C1496.46 127.2 1504.18 134.032 1509.55 142.816C1515.08 151.437 1517.85 161.441 1517.85 172.828C1517.85 184.215 1515.08 194.3 1509.55 203.084C1504.18 211.705 1496.46 218.456 1486.37 223.336C1476.45 228.216 1464.65 230.656 1450.99 230.656H1368.76V202.84H1449.77C1460.83 202.84 1469.45 200.156 1475.63 194.788C1481.98 189.42 1485.15 182.1 1485.15 172.828C1485.15 163.556 1481.98 156.236 1475.63 150.868C1469.45 145.5 1460.83 142.816 1449.77 142.816H1371.93L1386.33 126.712V298H1354.12V115H1450.99ZM1576.48 115V283.604L1562.08 269.696H1699.94V298H1544.27V115H1576.48ZM1870.57 193.08V219.92H1742.71V193.08H1870.57ZM1763.94 206.5L1751.01 288.24L1735.64 270.184H1877.64V298H1718.07L1732.71 206.5L1718.07 115H1876.42V142.816H1735.64L1751.01 124.76L1763.94 206.5Z" fill="black"/>
<path d="M722.984 178.505C960.596 192.004 1046.6 465.653 1280.88 423.755" stroke="url(#paint1_linear_1351_3767)" stroke-width="39.2748"/>
<path d="M1714.6 20.0996C1945.42 11.4602 2059.9 568 2059.9 568" stroke="url(#paint2_linear_1351_3767)" stroke-width="39.2748"/>
<defs>
<linearGradient id="paint0_linear_1351_3767" x1="729.657" y1="85.4637" x2="729.657" y2="773.15" gradientUnits="userSpaceOnUse">
<stop stop-color="#43D0D5"/>
<stop offset="1" stop-color="#1F9A9F"/>
</linearGradient>
<linearGradient id="paint1_linear_1351_3767" x1="970.186" y1="218.543" x2="970.186" y2="639.14" gradientUnits="userSpaceOnUse">
<stop stop-color="#43D0D5"/>
<stop offset="1" stop-color="#1F9A9F"/>
</linearGradient>
<linearGradient id="paint2_linear_1351_3767" x1="1867.6" y1="107.902" x2="1867.6" y2="1031.29" gradientUnits="userSpaceOnUse">
<stop stop-color="#43D0D5"/>
<stop offset="1" stop-color="#1F9A9F"/>
</linearGradient>
</defs>
</svg>
