<svg width="1882" height="333" viewBox="0 0 1882 333" fill="none" xmlns="http://www.w3.org/2000/svg">
<path d="M390.648 295.479H370.798L462.108 17.5791H516.894L416.056 315.329H349.36L248.919 42.5901H273.533L173.092 315.329H106.396L5.558 17.5791H60.741L151.654 295.479L132.598 295.082L233.039 17.5791H289.81L390.648 295.479Z" fill="black"/>
<path d="M1577.8 218.461H1631C1632.59 230.371 1637.49 240.825 1645.69 249.824C1654.16 258.823 1665.28 265.836 1679.04 270.865C1692.8 275.629 1708.68 278.011 1726.68 278.011C1753.41 278.011 1774.58 273.909 1790.2 265.704C1805.82 257.235 1813.62 245.854 1813.62 231.562C1813.62 219.917 1809.12 211.183 1800.12 205.36C1791.13 199.537 1774.85 195.17 1751.29 192.259L1686.98 183.922C1650.99 179.158 1624.78 170.292 1608.37 157.323C1592.23 144.09 1584.16 125.431 1584.16 101.346C1584.16 83.0841 1589.58 67.3364 1600.43 54.1031C1611.55 40.6051 1627.17 30.2831 1647.28 23.1371C1667.39 15.7264 1690.95 12.0211 1717.95 12.0211C1744.68 12.0211 1768.36 15.9911 1789.01 23.9311C1809.65 31.8711 1826.06 42.9871 1838.24 57.2791C1850.68 71.3064 1857.43 87.8481 1858.48 106.904H1805.29C1803.96 96.3174 1799.46 87.1864 1791.79 79.5111C1784.38 71.8358 1774.32 65.8808 1761.62 61.6461C1748.91 57.1468 1733.96 54.8971 1716.75 54.8971C1692.41 54.8971 1672.95 58.8671 1658.4 66.8071C1643.84 74.7471 1636.56 85.5984 1636.56 99.3611C1636.56 109.948 1640.8 118.152 1649.26 123.975C1658 129.533 1673.08 133.768 1694.52 136.679L1759.63 145.81C1786.36 149.515 1807.4 154.544 1822.75 160.896C1838.37 166.983 1849.49 175.32 1856.1 185.907C1862.72 196.229 1866.03 209.595 1866.03 226.004C1866.03 245.06 1860.2 261.734 1848.56 276.026C1836.91 290.318 1820.5 301.434 1799.33 309.374C1778.42 317.049 1753.94 320.887 1725.89 320.887C1697.3 320.887 1672.03 316.652 1650.06 308.183C1628.36 299.449 1611.15 287.407 1598.45 272.056C1585.74 256.705 1578.86 238.84 1577.8 218.461Z" fill="black"/>
<path d="M961.45 151.304H1082.54C1100 151.304 1113.77 147.334 1123.82 139.394C1134.15 131.454 1139.31 120.602 1139.31 106.84C1139.31 92.8123 1134.15 81.961 1123.82 74.2857C1113.77 66.3457 1100 62.3757 1082.54 62.3757H953.907L977.33 32.9977V314.868H924.926V17.1177H1087.3C1108.21 17.1177 1126.47 20.9553 1142.09 28.6307C1157.97 36.0413 1170.27 46.4957 1179.01 59.9937C1188 73.227 1192.5 88.8423 1192.5 106.84C1192.5 124.308 1188 139.791 1179.01 153.289C1170.27 166.522 1157.97 176.976 1142.09 184.652C1126.47 192.062 1108.21 195.768 1087.3 195.768H961.45V151.304ZM1020.21 175.521H1081.74L1200.05 314.868H1137.32L1020.21 175.521Z" fill="black"/>
<rect x="623.121" y="10.6929" width="160.188" height="45.3867" fill="black"/>
<rect x="532.344" y="230.933" width="129.486" height="45.3867" transform="rotate(-90 532.344 230.933)" fill="black"/>
<rect x="828.701" y="230.933" width="129.486" height="45.3867" transform="rotate(-90 828.701 230.933)" fill="black"/>
<rect x="577.733" y="276.321" width="45.3867" height="45.3867" transform="rotate(-90 577.733 276.321)" fill="black"/>
<rect x="783.308" y="101.46" width="45.3867" height="45.3867" transform="rotate(-90 783.308 101.46)" fill="black"/>
<rect x="737.246" y="157.24" width="45.3867" height="45.3867" transform="rotate(-90 737.246 157.24)" fill="#E60E6E"/>
<rect x="625.399" y="157.532" width="23.6297" height="47.2593" transform="rotate(-90 625.399 157.532)" fill="#E60E6E"/>
<rect x="603.345" y="133.906" width="22.0544" height="22.0544" transform="rotate(-90 603.345 133.906)" fill="#E60E6E"/>
<rect x="693.138" y="256.781" width="22.0544" height="22.0544" transform="rotate(-90 693.138 256.781)" fill="#E60E6E"/>
<rect x="671.084" y="256.781" width="22.0544" height="22.0544" transform="rotate(-90 671.084 256.781)" fill="#E60E6E"/>
<rect x="649.03" y="237.87" width="22.0544" height="22.0544" transform="rotate(-90 649.03 237.87)" fill="#E60E6E"/>
<rect x="626.976" y="215.816" width="22.0544" height="22.0544" transform="rotate(-90 626.976 215.816)" fill="#E60E6E"/>
<rect x="737.246" y="234.727" width="22.0544" height="22.0544" transform="rotate(-90 737.246 234.727)" fill="#E60E6E"/>
<rect x="759.3" y="212.672" width="22.0544" height="22.0544" transform="rotate(-90 759.3 212.672)" fill="#E60E6E"/>
<rect x="715.192" y="256.781" width="22.0544" height="22.0544" transform="rotate(-90 715.192 256.781)" fill="#E60E6E"/>
<rect x="671.084" y="133.906" width="22.0544" height="22.0544" transform="rotate(-90 671.084 133.906)" fill="#E60E6E"/>
<rect x="783.308" y="276.321" width="45.3867" height="45.3867" transform="rotate(-90 783.308 276.321)" fill="black"/>
<rect x="577.733" y="101.46" width="45.3867" height="45.3867" transform="rotate(-90 577.733 101.46)" fill="black"/>
<rect x="623.121" y="276.321" width="160.188" height="45.3867" fill="black"/>
<rect x="1305.93" y="17.3291" width="51.9853" height="105.546" fill="black"/>
<rect x="1305.93" y="215.816" width="51.9853" height="105.546" fill="black"/>
<path d="M1516.44 17.3291C1517.49 83.2296 1478.57 233.934 1343.74 233.934C1199.43 233.934 1229.09 133.111 1329.33 120.512C1429.57 107.913 1528.74 245.749 1528.74 317.426" stroke="black" stroke-width="48.8346"/>
</svg>
